PathFileType	4	(X/Y/Z)	Patient4_TMGait_0pt3_02_left_03.trc.trc
DataRate	CameraRate	NumFrames	NumMarkers	Units	OrigDataRate	OrigDataStartFrame	OrigNumFrames
49.469964664311	49.469964664311	5	33	mm	49.469964664311	89	       141
Frame#	Time	Sacral			L.Shoulder			Chest			R.Shoulder			Neck			R.ASIS			L.ASIS			R.Thigh.Superior			R.Thigh.Lateral			R.Thigh.Inferior			R.Patella			L.Thigh.Superior			L.Thigh.Lateral			L.Thigh.Inferior			L.Patella			L.Shank.Superior			L.Shank.Lateral			L.Shank.Inferior			R.Shank.Superior			R.Shank.Lateral			R.Shank.Inferior			R.Heel			R.Midfoot.Superior			R.Midfoot.Lateral			R.Toe			L.Heel			L.Midfoot.Lateral			L.Midfoot.Superior			L.Toe			L.Elbow			L.Wrist			R.Elbow			R.Wrist			
		X1	Y1	Z1	X2	Y2	Z2	X3	Y3	Z3	X4	Y4	Z4	X5	Y5	Z5	X6	Y6	Z6	X7	Y7	Z7	X8	Y8	Z8	X9	Y9	Z9	X10	Y10	Z10	X11	Y11	Z11	X12	Y12	Z12	X13	Y13	Z13	X14	Y14	Z14	X15	Y15	Z15	X16	Y16	Z16	X17	Y17	Z17	X18	Y18	Z18	X19	Y19	Z19	X20	Y20	Z20	X21	Y21	Z21	X22	Y22	Z22	X23	Y23	Z23	X24	Y24	Z24	X25	Y25	Z25	X26	Y26	Z26	X27	Y27	Z27	X28	Y28	Z28	X29	Y29	Z29	X30	Y30	Z30	X31	Y31	Z31	X32	Y32	Z32	X33	Y33	Z33	

89	6.978857142857	723.064846313130	1013.045606376017	511.201660350625	953.631526716967	1436.793063466693	376.490447178936	1012.847582693887	1360.680894876024	555.052493816943	895.577283162370	1438.129776416452	706.591964393443	902.552982000996	1496.633154642554	528.595528651703	930.403837839962	940.202272730066	662.953502746983	957.369726045409	959.307450077477	390.728315569440	983.927964697815	744.725530821165	628.259200094187	903.304758850370	630.486635055009	677.544114540226	989.962605259963	584.360524099845	602.420002550058	996.375704372693	495.280621163236	607.800143499825	946.433828926708	727.661930081968	408.863874400528	832.089098137046	636.679870745203	335.295531167630	888.154684025700	538.487185755461	398.390508593861	868.264224780728	466.403051268762	400.649112173799	815.791875518860	410.120168200973	387.856231621814	691.896912499643	335.477434509993	332.466565549597	705.690894272972	207.168128036350	392.491879974421	966.623450204766	406.321436062723	608.839317428058	891.753310693354	301.268806619061	663.234524219526	937.013379634492	207.685161616695	600.617423368248	802.820223511518	44.795304604527	561.952884771091	973.253919315881	97.157711867346	604.788924201976	883.243881555055	37.971123154019	639.618211360302	1091.738077925663	41.560442508946	638.283407748038	535.964809738714	88.531470350266	425.308762774725	608.767626075541	63.821684684458	348.555136117393	704.152308552692	105.594024357043	373.965613700953	814.708967682307	36.294914864203	351.524836929005	1056.508798721700	1119.082646977757	232.894250497629	1314.836497953336	1106.302577251289	255.867592607746	728.619128065010	1130.649179230904	786.497402278073	690.528288648521	872.365250307638	806.359807625422	
90	6.999071428571	723.910300825552	1013.929849757049	516.200690482656	953.064258985975	1437.480203298916	379.117829687704	1013.945258201730	1361.490685937303	557.196767199690	898.100869637537	1438.959138984243	709.750197908148	903.506054064730	1497.465472843168	531.360345520373	932.275225355825	940.588188503646	666.184056253302	957.076807359112	960.067314336230	393.870826144702	983.292677452209	743.794562080753	631.301208003038	901.057804496154	630.374213927918	680.067209982980	986.901245969640	583.460242462414	604.697864916258	991.995805958372	494.608904154389	609.515366135911	948.460461122744	728.813991626904	411.440313470692	835.158263999791	636.784487481116	338.154022972562	893.262139807602	538.656159113314	400.262738251377	873.850008032174	465.408310815204	401.630433884275	819.309072146617	410.043723292709	389.169274959718	693.352449683492	338.506058095384	334.175238227014	705.067397924388	209.445305455371	392.920128919695	961.979781403157	405.912729344809	610.327501960157	886.538137635837	301.005502766981	664.112672838593	931.563154741970	207.494262164561	601.216330241641	796.818646572968	44.793796508097	561.938208808665	967.239846232401	97.102305872971	604.809550280074	877.197612304075	37.963357393326	639.600395034495	1085.672284325993	41.452400831486	638.423782733926	532.610141910585	95.079937714951	425.465306689615	604.482207017829	67.910803866654	348.692928762695	701.252012487201	106.932517055275	373.694321973072	809.137745553774	36.096895464377	351.557054830932	1050.565995846727	1115.959206133401	238.235235224346	1308.920918847857	1094.107013074285	259.471754457363	733.100877084046	1131.116565553285	793.217572370725	695.879581277649	873.015936666343	815.549572426228	
91	7.019285714286	724.508032369706	1014.531587524789	521.174635701210	952.024100514369	1437.950465774839	381.442175545492	1014.667149745695	1362.167986524195	559.008843453479	900.280269941355	1439.600150524762	712.609625507913	904.073216484119	1498.111744656878	533.838010716488	934.028271617609	940.894130406703	669.297308588614	956.486950903019	960.635000403609	396.870436702455	982.710967449536	742.887419198970	634.109807932421	899.029387359925	630.191985324352	682.433276918146	984.010349061432	582.571062922479	606.745135369052	987.848103209817	493.882690830661	611.007255249811	950.782127899630	729.890627973394	414.012835601054	838.875833025348	636.568935389141	340.997120981495	899.195942402607	538.674558551597	402.230789598672	880.335001639512	464.202913595802	402.676349579577	823.710301374844	409.697273002687	390.549436437790	695.763707229922	341.492506744862	335.848063663719	705.011992883727	211.760911548832	393.335409962699	957.499816027220	405.444555618663	611.642538827409	881.477938756653	300.735106774494	664.897504914481	926.158252321919	207.259374206698	601.702330747996	790.765145825969	44.792408869347	561.902273370920	961.199269091503	97.047999431899	604.804575438541	871.094780797537	37.959026204393	639.569081724923	1079.558864374267	41.349102961307	638.537036416720	529.775177108982	102.257201670711	425.597180252684	600.506037513475	72.468251669217	348.818945918742	698.633882588152	108.391428466892	373.417840833897	803.552237762641	35.798433532617	351.603019454107	1043.753652743297	1112.512269431629	243.422198467348	1301.447598753175	1079.583734555409	262.906990522069	737.837374825289	1131.035044617534	799.688860933788	701.920877519223	873.068665426232	824.571897944982	
92	7.039500000000	724.841353628184	1014.846733895253	526.152744038714	950.527458767545	1438.165620768790	383.458216895586	1015.029124208500	1362.681922115534	560.485071480885	902.143702804749	1440.049114971320	715.158191513068	904.266130324443	1498.550884540593	536.023870591178	935.656020348888	941.114778051899	672.299038451587	955.585002370530	960.993123823380	399.734324205245	982.235729258085	742.025848233316	636.676063938341	897.328935342195	629.925493026148	684.657995512476	981.413895923794	581.703818148328	608.565998322903	984.096095065576	493.082244749816	612.295900386195	953.392487140910	730.906366553798	416.620682339034	843.281491783679	636.065866965229	343.827941096122	905.966770081900	538.587796343754	404.339338875587	887.737109287842	462.850235316876	403.829582105528	829.037766701584	409.119640226963	392.000036819531	699.187028658871	344.500726164929	337.480135108168	705.569814690077	214.188902845924	393.712342320164	953.304004912707	404.900698320442	612.788998026941	876.680074671205	300.456970775714	665.604220229514	920.857110093649	206.973951127705	602.074767358418	784.677477873350	44.803619566572	561.851437859367	955.152543200379	97.007744577751	604.790180175928	864.957068794648	37.960612142933	639.525319116118	1073.417403748902	41.245327858815	638.622491692561	527.562436663557	110.224323977169	425.685510299520	596.902746269399	77.619062035431	348.923345064481	696.329173143186	110.036343219653	373.123412468631	797.914071816092	35.365487453397	351.670629870161	1036.245717353440	1108.799189179781	248.444394316079	1292.231908026776	1062.702437547429	266.218399405718	742.945085546404	1130.347519884012	805.851867338203	708.882835735829	872.435908883651	833.278490834874	
93	7.059714285714	724.896934502217	1014.872017062798	531.154902629597	948.600388392012	1438.083283773266	385.163632315647	1015.054700263252	1362.997265956300	561.626874691656	903.728002522952	1440.304557196828	717.385867498675	904.106818151849	1498.759060523848	537.913597179512	937.142644157951	941.234872652969	675.198385594720	954.366663289703	961.129500611838	402.476622461773	981.908018222731	741.219445645145	639.009841391466	896.041063660246	629.553980735807	686.763278585920	979.221933254720	580.858361072777	610.183648485656	980.884357992718	492.183032354840	613.420441711427	956.273175574354	731.883240880861	419.309819585096	848.397142667822	635.321936572331	346.650817328099	913.557783658605	538.454866176862	406.636443128260	896.047713015022	461.425111032663	405.134953108729	835.305431770491	408.365566450284	393.527249118739	703.646571712515	347.606074061936	339.078306359723	706.773983708390	216.818678180170	394.043841115539	949.498541684201	404.260641979313	613.787001111317	872.233416565107	300.164570955960	666.255826892216	915.710721222872	206.630377176565	602.345587290645	778.573505013531	44.838805924417	561.793085390257	949.118420281145	96.992173555050	604.785034012108	858.805833187718	37.970454991050	639.472420779226	1067.265888058716	41.136370187393	638.682805033065	526.066056066333	119.130384457227	425.724748989016	593.738708632700	83.495114200993	349.004942832132	694.369080185978	111.953636743445	372.811877529754	792.188868601802	34.775860924601	351.768569234282	1028.219065009018	1104.863108694693	253.299379622034	1281.058088203361	1043.531567149077	269.441741036483	748.539555003343	1129.020438199889	811.660260565998	717.005303404370	871.059797203469	841.534006988500	
